<svg xmlns="http://www.w3.org/2000/svg" width="96" height="99" fill="none" viewBox="0 0 96 99">
  <path stroke="#000" stroke-linecap="round" stroke-width="5" d="M36.582 21.806H93M49.12 3v6.269M80.462 3v6.269m-34.478 21.94h6.269m9.403 0h6.268m9.403 0h6.269m-37.612 9.403h6.269m9.403 0h6.268m9.403 0h6.269m-37.612 9.403h6.269m9.403 0h6.268m9.403 0h6.269m-36.985 9.403H82.97c3.51 0 5.266 0 6.607-.683a6.267 6.267 0 0 0 2.74-2.74C93 54.655 93 52.9 93 49.388v-30.09c0-3.51 0-5.266-.683-6.607a6.269 6.269 0 0 0-2.74-2.74c-1.34-.682-3.096-.682-6.607-.682H46.612c-3.51 0-5.266 0-6.607.683a6.268 6.268 0 0 0-2.74 2.74c-.683 1.34-.683 3.096-.683 6.607v30.09c0 3.51 0 5.265.683 6.606a6.267 6.267 0 0 0 2.74 2.74c1.34.683 3.096.683 6.607.683Z"/>
  <path stroke="#000" stroke-linecap="round" stroke-linejoin="round" stroke-width="5" d="m3 49.285 10.36 8.622c.683.57 1.546.881 2.436.881h16.1M16.32 72.093h.038m41.828 0h.038M30.023 35.239c-3.901 0-12.636 2.203-13.99 4.571L5.005 59.083A15.191 15.191 0 0 0 3 66.628v22.571c0 2.1 1.928 7.16 4.03 7.16h3.806c2.102 0 4.254-5.06 4.254-7.16l-.672-3.801H60.09v3.801c0 2.1 1.256 7.16 3.358 7.16h3.806c2.102 0 4.253-5.06 4.253-7.16V66.628m-53.283 5.465c0 1.05-.852 1.9-1.903 1.9a1.902 1.902 0 1 1 1.903-1.9Zm41.866 0a1.902 1.902 0 0 1-3.806 0 1.902 1.902 0 0 1 3.806 0Z"/>
</svg>
