<svg xmlns="http://www.w3.org/2000/svg" width="96" height="99" fill="none" viewBox="0 0 96 99">
  <path fill="#000" fill-rule="evenodd" d="M49.12.5a2.5 2.5 0 0 1 2.5 2.5v3.769h26.343V3a2.5 2.5 0 0 1 5 0v3.769h.107c1.67 0 3.073 0 4.221.093 1.2.098 2.34.311 3.421.862a8.767 8.767 0 0 1 3.832 3.832c.551 1.082.764 2.222.862 3.422.094 1.147.094 2.55.094 4.22v30.29c0 1.67 0 3.073-.094 4.22-.098 1.2-.31 2.34-.862 3.422a8.767 8.767 0 0 1-3.832 3.832c-1.081.551-2.221.764-3.421.862-1.148.094-2.55.094-4.22.094H46.51c-1.67 0-3.072 0-4.22-.094-1.2-.098-2.34-.31-3.421-.862a8.768 8.768 0 0 1-3.832-3.832c-.551-1.081-.764-2.221-.862-3.421-.094-1.148-.094-2.55-.094-4.22V19.198c0-1.67 0-3.073.094-4.22.098-1.2.31-2.34.862-3.421m4.044 12.749v25.082c0 1.797.002 2.994.077 3.914.073.89.202 1.299.334 1.558.361.71.938 1.286 1.647 1.647.26.132.668.261 1.558.334.92.075 2.117.077 3.914.077H82.97c1.797 0 2.994-.002 3.914-.077.89-.073 1.299-.202 1.558-.334a3.767 3.767 0 0 0 1.647-1.647c.132-.26.261-.667.334-1.558.075-.92.077-2.117.077-3.914V24.306H39.082Zm51.418-5H39.082v-.008c0-1.796.002-2.993.077-3.913.073-.89.202-1.3.334-1.559a3.768 3.768 0 0 1 1.647-1.647c.26-.132.668-.26 1.558-.333.92-.075 2.117-.077 3.914-.077H82.97c1.797 0 2.994.002 3.914.077.89.072 1.3.201 1.558.333.71.362 1.286.938 1.647 1.647.132.26.261.668.334 1.559.075.92.077 2.117.077 3.914v.007ZM46.62 6.769V3a2.5 2.5 0 0 1 2.5-2.5m-2.5 6.269h-.109c-1.67 0-3.073 0-4.22.093-1.2.098-2.34.311-3.422.862m0 0a8.769 8.769 0 0 0-3.832 3.832Zm-1.618 4.96.013.007-.013-.006c7.352 16.024 6.233 17.143 6.233 18.524l2.5-2.5c8.769 1.12 7.65 0 6.269 0 1.38 5 2.5 3.88 2.5 2.5l-2.5 2.5c-8.769-1.12-7.65 0-6.269 0m13.172-2.5a2.5 2.5 0 0 1 2.5-2.5h6.268a2.5 2.5 0 1 1 0 5h-6.268a2.5 2.5 0 0 1-2.5-2.5Zm15.671 0a2.5 2.5 0 0 1 2.5-2.5h6.269a2.5 2.5 0 1 1 0 5h-6.269a2.5 2.5 0 0 1-2.5-2.5Zm-31.343 9.403a2.5 2.5 0 0 1 2.5-2.5h6.269a2.5 2.5 0 0 1 0 5h-6.269a2.5 2.5 0 0 1-2.5-2.5Zm15.672 0a2.5 2.5 0 0 1 2.5-2.5h6.268a2.5 2.5 0 0 1 0 5h-6.268a2.5 2.5 0 0 1-2.5-2.5Zm15.671 0a2.5 2.5 0 0 1 2.5-2.5h6.269a2.5 2.5 0 0 1 0 5h-6.269a2.5 2.5 0 0 1-2.5-2.5Zm-31.343 9.403a2.5 2.5 0 0 1 2.5-2.5h6.269a2.5 2.5 0 0 1 0 5h-6.269a2.5 2.5 0 0 1-2.5-2.5Zm15.672 0a2.5 2.5 0 0 1 2.5-2.5h6.268a2.5 2.5 0 0 1 0 5h-6.268a2.5 2.5 0 0 1-2.5-2.5Zm15.671 0a2.5 2.5 0 0 1 2.5-2.5h6.269a2.5 2.5 0 0 1 0 5h-6.269a2.5 2.5 0 0 1-2.5-2.5Zm-56.605-8.967c-.033.028-.036.03-.02.004l-6.835 11.945 3.59 2.988h.001c.234.196.53.303.837.303h16.1a2.5 2.5 0 1 1 0 5h-16.1a6.308 6.308 0 0 1-4.036-1.46l-2.913-2.424-1.671 2.92A12.691 12.691 0 0 0 5.5 66.629V89.2c0 .534.324 1.938.974 3.272.31.637.62 1.094.862 1.353l.033.035h3.158c.022-.02.047-.045.075-.074.267-.272.6-.741.935-1.38.64-1.221.982-2.46 1.043-3.042l-.624-3.53a2.5 2.5 0 0 1 2.462-2.935H60.09a2.5 2.5 0 0 1 2.5 2.5V89.2c0 .707.243 2.197.73 3.484.208.553.416.942.58 1.176h3.045c.022-.02.047-.045.075-.074.267-.272.6-.741.935-1.38.709-1.353 1.052-2.727 1.052-3.206V66.628a2.5 2.5 0 0 1 5 0v22.571c0 1.62-.732 3.826-1.624 5.528-.466.889-1.065 1.816-1.793 2.558-.673.687-1.811 1.574-3.336 1.574h-3.806c-1.608 0-2.72-.972-3.35-1.744-.652-.8-1.12-1.777-1.456-2.666-.668-1.768-1.052-3.857-1.052-5.25v-1.301H17.398l.154.866c.025.144.038.29.038.435 0 1.62-.733 3.826-1.625 5.528-.466.889-1.065 1.816-1.793 2.558-.673.687-1.811 1.574-3.336 1.574H7.03c-1.545 0-2.676-.906-3.339-1.612-.71-.756-1.277-1.695-1.711-2.585C1.14 92.94.5 90.764.5 89.199V66.628c0-3.083.805-6.11 2.336-8.786l1.816 1.04-1.816-1.04 2.109-3.686-3.544-2.95a2.5 2.5 0 1 1 3.198-3.843l2.867 2.386 6.396-11.18c.735-1.284 2.139-2.142 3.254-2.705 1.247-.628 2.739-1.175 4.243-1.623 2.97-.886 6.385-1.502 8.664-1.502a2.5 2.5 0 1 1 0 5c-1.621 0-4.525.485-7.236 1.293-1.336.399-2.526.847-3.42 1.297-.748.377-1.055.642-1.144.719Zm48.604 52.904a.1.1 0 0 1 .02-.012.082.082 0 0 1-.02.012Zm-2.773.09c0 .001-.005-.002-.013-.01a.09.09 0 0 1 .013.01Zm-53.645-.09.02-.012a.084.084 0 0 1-.02.012Zm-2.912.019-.021-.014c.014.008.02.013.02.014Zm4.421-21.878c0-2.433 1.974-4.4 4.403-4.4a4.402 4.402 0 1 1-4.403 4.4Zm41.866 0c0-2.433 1.974-4.4 4.403-4.4a4.402 4.402 0 0 1 4.403 4.4c0 2.433-1.975 4.4-4.403 4.4a4.402 4.402 0 0 1-4.403-4.4Z" clip-rule="evenodd"/>
</svg>
