<svg xmlns="http://www.w3.org/2000/svg" width="66" height="66" fill="none" viewBox="0 0 66 66">
  <path stroke="#000" stroke-linecap="round" stroke-linejoin="round" stroke-width="5" d="m62.556 63-6.496-6.496m0 0A9.375 9.375 0 1 0 42.8 43.246a9.375 9.375 0 0 0 13.26 13.258ZM46.056 25.5h10.5c2.1 0 3.15 0 3.952-.409a3.75 3.75 0 0 0 1.639-1.639c.409-.802.409-1.852.409-3.952V9c0-2.1 0-3.15-.41-3.952a3.75 3.75 0 0 0-1.638-1.64C59.706 3 58.656 3 56.556 3h-10.5c-2.1 0-3.15 0-3.953.409a3.75 3.75 0 0 0-1.639 1.639c-.408.802-.408 1.852-.408 3.952v10.5c0 2.1 0 3.15.408 3.953a3.75 3.75 0 0 0 1.64 1.638c.801.409 1.851.409 3.952.409Zm-37.5 0h10.5c2.1 0 3.15 0 3.952-.409a3.751 3.751 0 0 0 1.639-1.639c.409-.802.409-1.852.409-3.952V9c0-2.1 0-3.15-.409-3.952a3.75 3.75 0 0 0-1.639-1.64C22.206 3 21.156 3 19.056 3h-10.5c-2.1 0-3.15 0-3.953.409a3.75 3.75 0 0 0-1.639 1.639C2.556 5.85 2.556 6.9 2.556 9v10.5c0 2.1 0 3.15.408 3.953a3.75 3.75 0 0 0 1.64 1.638c.801.409 1.851.409 3.952.409Zm0 37.5h10.5c2.1 0 3.15 0 3.952-.409a3.75 3.75 0 0 0 1.639-1.639c.409-.802.409-1.852.409-3.952V46.5c0-2.1 0-3.15-.409-3.953a3.75 3.75 0 0 0-1.639-1.638c-.802-.409-1.852-.409-3.952-.409h-10.5c-2.1 0-3.15 0-3.953.409a3.75 3.75 0 0 0-1.639 1.639c-.408.802-.408 1.852-.408 3.952V57c0 2.1 0 3.15.408 3.953a3.75 3.75 0 0 0 1.64 1.638c.8.409 1.85.409 3.951.409Z"/>
</svg>
