<svg width="17" height="18" viewBox="0 0 17 18" fill="none" xmlns="http://www.w3.org/2000/svg">
<path fill-rule="evenodd" clip-rule="evenodd" d="M13.2644 1.66231L15.2094 3.24531C15.3972 3.4283 15.5025 3.67982 15.5009 3.94201C15.4994 4.20421 15.3913 4.4545 15.2014 4.63531L13.7234 6.43531L8.69339 12.5723C8.60629 12.6749 8.48909 12.7473 8.35839 12.7793L5.75041 13.3793C5.40435 13.3936 5.10593 13.1384 5.06641 12.7943L5.18841 10.2213C5.19745 10.0899 5.24945 9.9652 5.33641 9.8663L10.1494 4.00131L11.8444 1.93331C12.1737 1.48505 12.7932 1.36684 13.2644 1.66231Z" stroke="black" stroke-width="1.5" stroke-linecap="round" stroke-linejoin="round"/>
<path d="M1.5 15.7411C1.08579 15.7411 0.75 16.0769 0.75 16.4911C0.75 16.9054 1.08579 17.2411 1.5 17.2411V15.7411ZM15.2 17.2411C15.6142 17.2411 15.95 16.9054 15.95 16.4911C15.95 16.0769 15.6142 15.7411 15.2 15.7411V17.2411ZM10.8455 3.72045C10.6904 3.33635 10.2534 3.15065 9.8693 3.30569C9.4852 3.46073 9.2995 3.89779 9.4545 4.28189L10.8455 3.72045ZM13.8893 7.16974C14.2933 7.07846 14.5468 6.67694 14.4556 6.27291C14.3643 5.86887 13.9628 5.61533 13.5587 5.70661L13.8893 7.16974ZM1.5 17.2411H15.2V15.7411H1.5V17.2411ZM9.4545 4.28189C9.6872 4.85826 10.165 5.67995 10.8765 6.31263C11.6011 6.95701 12.633 7.45354 13.8893 7.16974L13.5587 5.70661C12.916 5.85181 12.3609 5.62534 11.8733 5.19172C11.3725 4.74639 11.0128 4.13509 10.8455 3.72045L9.4545 4.28189Z" fill="black"/>
</svg>
