<svg width="21" height="24" viewBox="0 0 21 24" fill="none" xmlns="http://www.w3.org/2000/svg">
<path d="M19.2121 3.21372L1.89062 6.89551" stroke="#161212" stroke-width="2" stroke-linecap="round"/>
<path d="M5.3484 6.22942C6.33836 5.82659 6.84448 5.29486 6.96222 4.44494C6.96584 4.4188 6.9691 4.38988 6.97562 4.33203L7.01147 4.01424C7.04207 3.74296 7.05737 3.60732 7.0905 3.48786C7.22274 3.01127 7.57281 2.62544 8.03433 2.44761C8.15001 2.40304 8.28355 2.37465 8.55061 2.31789L11.9022 1.60548C12.1692 1.54872 12.3028 1.52033 12.4266 1.514C12.9206 1.48874 13.3973 1.69883 13.7119 2.08043C13.7908 2.17607 13.86 2.29378 13.9983 2.52915L14.1603 2.80489C14.1897 2.85503 14.2045 2.88019 14.2184 2.90259C14.6717 3.63114 15.5252 4.0073 16.3688 3.85021C16.3947 3.84538 16.4231 3.83934 16.4801 3.82724" stroke="#161212" stroke-width="1.8"/>
<path d="M17.4914 16.4156C17.307 19.1811 17.2148 20.5639 16.3138 21.4068C15.4128 22.2498 14.0269 22.2498 11.2553 22.2498H10.4496C7.67797 22.2498 6.29214 22.2498 5.39108 21.4068C4.49003 20.5639 4.39784 19.1811 4.21348 16.4156L3.73438 9.229M17.9705 9.229L17.7621 12.354" stroke="#161212" stroke-width="2" stroke-linecap="round"/>
</svg>
