<svg xmlns="http://www.w3.org/2000/svg" width="40" height="50" fill="none" viewBox="0 0 40 50">
  <path fill="#000" fill-rule="evenodd" d="M19.877.057C12.851.057 7.15 5.745 7.15 12.76v6.803H5.287c-2.9 0-5.287 2.374-5.287 5.273V44.67c0 2.899 2.388 5.273 5.287 5.273h29.438c2.9 0 5.276-2.374 5.276-5.273V24.837c0-2.899-2.377-5.273-5.276-5.273h-2.113v-6.803c0-7.016-5.709-12.704-12.735-12.704Zm0 2.934c5.455 0 9.8 4.332 9.8 9.77v6.803H10.086v-6.803c0-5.438 4.337-9.77 9.792-9.77ZM5.287 22.5h29.438c1.328 0 2.34 1.018 2.34 2.338v19.834c0 1.32-1.012 2.339-2.34 2.339H5.287c-1.328 0-2.352-1.019-2.352-2.339V24.837c0-1.32 1.024-2.338 2.352-2.338Zm14.719 5.198c-2.807 0-5.124 2.307-5.124 5.113 0 2.295 1.55 4.248 3.651 4.883v2.656a1.467 1.467 0 0 0 2.934 0v-2.653c2.103-.633 3.652-2.588 3.652-4.886 0-2.806-2.306-5.113-5.113-5.113Zm0 2.935c1.224 0 2.178.961 2.178 2.178 0 1.216-.954 2.166-2.178 2.166s-2.19-.95-2.19-2.166c0-1.217.966-2.178 2.19-2.178Z" clip-rule="evenodd"/>
</svg>
