<?xml version="1.0" encoding="utf-8"?>
<!-- Generator: Adobe Illustrator 23.0.1, SVG Export Plug-In . SVG Version: 6.00 Build 0)  -->
<svg version="1.1" id="Capa_1" xmlns="http://www.w3.org/2000/svg" xmlns:xlink="http://www.w3.org/1999/xlink" x="0px" y="0px"
	 viewBox="0 0 640 480" style="enable-background:new 0 0 640 480;" xml:space="preserve">
<style type="text/css">
	.st0{fill:url(#SVGID_1_);}
	.st1{fill:url(#SVGID_2_);}
	.st2{fill:url(#SVGID_3_);}
	.st3{fill:url(#SVGID_4_);}
	.st4{fill:url(#SVGID_5_);}
	.st5{fill:url(#SVGID_6_);}
	.st6{fill:none;stroke:#000000;stroke-width:14;stroke-miterlimit:10;}
	.st7{fill:none;stroke:#000000;stroke-width:5;stroke-miterlimit:10;}
	.st8{fill:none;stroke:#000000;stroke-width:4;stroke-miterlimit:10;}
	.st9{fill:none;stroke:#000000;stroke-width:2;stroke-miterlimit:10;}
</style>
<path d="M205.37,127.83L205.37,127.83l33.01-0.12l6,20.2l12,39.8l6,20.2l10.2,33.4l2,6.8l6,19.6h-52.6l-6-20.2l-4-13.6h-59.8
	l-8.8,13.6l-0.4,0.6h0.2l6,19.6l-41,0.4l13-20.2l25.6-39.8l13-20.2 M211.78,214.31l-1.8-6.2l-6-20.2l-5-16.8l-10.8,16.8l-13,20.2
	l-4,6.2H211.78z"/>
<g>
	<linearGradient id="SVGID_1_" gradientUnits="userSpaceOnUse" x1="238.9173" y1="135.7202" x2="501.6724" y2="135.7202">
		<stop  offset="0" style="stop-color:#000000"/>
		<stop  offset="0.6" style="stop-color:#8D8D8D;stop-opacity:0.01"/>
		<stop  offset="1" style="stop-color:#B3B3B3;stop-opacity:0"/>
	</linearGradient>
	<rect x="238.92" y="127.81" class="st0" width="262.76" height="15.82"/>
	<linearGradient id="SVGID_2_" gradientUnits="userSpaceOnUse" x1="243.9173" y1="158.5294" x2="506.6724" y2="158.5294">
		<stop  offset="0" style="stop-color:#000000"/>
		<stop  offset="0.6" style="stop-color:#8D8D8D;stop-opacity:0.01"/>
		<stop  offset="1" style="stop-color:#B3B3B3;stop-opacity:0"/>
	</linearGradient>
	<rect x="243.92" y="150.62" class="st1" width="262.76" height="15.82"/>
	<linearGradient id="SVGID_3_" gradientUnits="userSpaceOnUse" x1="252.9173" y1="184.6543" x2="515.6724" y2="184.6543">
		<stop  offset="0" style="stop-color:#000000"/>
		<stop  offset="0.6" style="stop-color:#8D8D8D;stop-opacity:0.01"/>
		<stop  offset="1" style="stop-color:#B3B3B3;stop-opacity:0"/>
	</linearGradient>
	<rect x="252.92" y="176.75" class="st2" width="262.76" height="15.82"/>
	<linearGradient id="SVGID_4_" gradientUnits="userSpaceOnUse" x1="254.7132" y1="208.5338" x2="517.4683" y2="208.5338">
		<stop  offset="0" style="stop-color:#000000"/>
		<stop  offset="0.6" style="stop-color:#8D8D8D;stop-opacity:0.01"/>
		<stop  offset="1" style="stop-color:#B3B3B3;stop-opacity:0"/>
	</linearGradient>
	<rect x="254.71" y="200.63" class="st3" width="262.76" height="15.82"/>
	<linearGradient id="SVGID_5_" gradientUnits="userSpaceOnUse" x1="264.9173" y1="234.5708" x2="527.6724" y2="234.5708">
		<stop  offset="0" style="stop-color:#000000"/>
		<stop  offset="0.6" style="stop-color:#8D8D8D;stop-opacity:0.01"/>
		<stop  offset="1" style="stop-color:#B3B3B3;stop-opacity:0"/>
	</linearGradient>
	<rect x="264.92" y="226.66" class="st4" width="262.76" height="15.82"/>
	<linearGradient id="SVGID_6_" gradientUnits="userSpaceOnUse" x1="264.9173" y1="259.9541" x2="527.6724" y2="259.9541">
		<stop  offset="0" style="stop-color:#000000"/>
		<stop  offset="0.6" style="stop-color:#8D8D8D;stop-opacity:0.01"/>
		<stop  offset="1" style="stop-color:#B3B3B3;stop-opacity:0"/>
	</linearGradient>
	<rect x="264.92" y="252.05" class="st5" width="262.76" height="15.82"/>
</g>
<path d="M302.49,267.71l21.4-120.4l-5.6-19.6h56.6l-19.6,110.2l-5.4,29.8H302.49z"/>
<ellipse class="st6" cx="463.49" cy="201.12" rx="80.66" ry="73.26"/>
<circle class="st7" cx="463.49" cy="201.12" r="31.83"/>
<ellipse class="st8" cx="463.49" cy="201.12" rx="64.65" ry="58.72"/>
<path class="st7" d="M514.83,185.92l-10.64-18.44c-0.1-0.18-0.33-0.24-0.51-0.14l-5.15,2.97c-6.31-5.94-14.44-10.27-23.58-12.24
	v-9.18c0-0.21-0.17-0.37-0.37-0.37h-21.29c-0.21,0-0.37,0.17-0.37,0.37v9.08c-8.54,1.76-16.22,5.58-22.39,10.84l-6.3-3.64
	c-0.18-0.1-0.41-0.04-0.51,0.14l-10.64,18.44c-0.1,0.18-0.04,0.41,0.14,0.51l4.55,2.63c-1.64,4.42-2.54,9.15-2.54,14.08
	c0,4.5,0.75,8.85,2.13,12.94l-5.04,2.91c-0.18,0.1-0.24,0.33-0.14,0.51l10.64,18.44c0.1,0.18,0.33,0.24,0.51,0.14l6.26-3.62
	c5.86,5.28,13.19,9.2,21.38,11.23v9.83c0,0.21,0.17,0.37,0.37,0.37h21.29c0.21,0,0.37-0.17,0.37-0.37v-9.11
	c8.55-1.51,16.29-5.07,22.6-10.09l7.04,4.07c0.18,0.1,0.41,0.04,0.51-0.14l10.64-18.44c0.1-0.18,0.04-0.41-0.14-0.51l-4.58-2.65
	c2-4.83,3.1-10.06,3.1-15.52c0-4.17-0.65-8.19-1.84-12.01l4.36-2.52C514.87,186.33,514.93,186.1,514.83,185.92z"/>
<circle class="st8" cx="463.49" cy="201.12" r="10.58"/>
<g>
	<circle class="st9" cx="463.05" cy="181.85" r="4.08"/>
	<circle class="st9" cx="446.59" cy="191.87" r="4.08"/>
	<circle class="st9" cx="447.02" cy="211.14" r="4.08"/>
	<circle class="st9" cx="463.93" cy="220.39" r="4.08"/>
	<circle class="st9" cx="480.4" cy="210.38" r="4.08"/>
	<circle class="st9" cx="479.96" cy="191.11" r="4.08"/>
</g>
</svg>
