<svg xmlns="http://www.w3.org/2000/svg" viewBox="0 0 1920 1080"><defs><style>.cls-1,.cls-4{fill:#fff;}.cls-2,.cls-3{fill:#3860ff;}.cls-2,.cls-4{stroke:#000;stroke-miterlimit:10;}.cls-4{stroke-width:10px;}.cls-5{font-size:280px;font-family:LTInstitute-SemiBold, LT Institute;font-weight:600;letter-spacing:-0.01em;}</style></defs><g id="Fondo"><rect class="cls-1" width="1920" height="1080"/></g><g id="Logo"><path class="cls-2" d="M580,605.39"/><path class="cls-2" d="M575.52,594.91"/><circle id="path5" class="cls-3" cx="471.55" cy="549.79" r="180"/><polygon class="cls-4" points="493.05 537.38 514.02 511.41 408.49 456.75 423.52 493.54 493.05 537.38"/><polygon class="cls-4" points="458.77 579.8 408.49 456.75 380.54 442.28 457.03 686.64 487.18 649.33 458.77 579.8 458.77 579.8"/><polygon class="cls-4" points="458.77 579.8 487.18 649.33 520.09 608.59 565.87 583.28 493.05 537.38 458.77 579.8"/><polygon class="cls-4" points="514.02 511.41 493.05 537.38 565.87 583.28 607.91 560.04 514.02 511.41"/><polygon class="cls-4" points="459.25 580.5 493.53 538.08 424 494.25 459.25 580.5"/><text class="cls-5" transform="translate(684.15 655.59)">Albisoft</text></g></svg>