<svg xmlns="http://www.w3.org/2000/svg" viewBox="0 0 1920 1080"><defs><style>.cls-1,.cls-4{fill:#fff;}.cls-2,.cls-3{fill:#3860ff;}.cls-2{stroke:#000;}.cls-2,.cls-4{stroke-miterlimit:10;}.cls-4{stroke:#3860ff;stroke-width:10px;}.cls-5{font-size:280px;font-family:LTInstitute-SemiBold, LT Institute;font-weight:600;letter-spacing:-0.01em;}</style></defs><g id="Fondo"><rect class="cls-1" width="1920" height="1080"/></g><g id="Logo"><path class="cls-2" d="M580,605.39"/><path class="cls-2" d="M575.52,594.91"/><circle id="path5" class="cls-3" cx="471.55" cy="549.79" r="180"/><polygon class="cls-4" points="495.75 533.03 518.67 504.66 403.35 444.94 419.77 485.14 495.75 533.03"/><polygon class="cls-4" points="458.29 579.39 403.35 444.94 372.81 429.12 456.39 696.14 489.34 655.37 458.29 579.39 458.29 579.39"/><polygon class="cls-4" points="458.29 579.39 489.34 655.37 525.3 610.85 575.33 583.2 495.75 533.03 458.29 579.39"/><polygon class="cls-4" points="518.67 504.66 495.75 533.03 575.33 583.2 621.26 557.8 518.67 504.66"/><polygon class="cls-4" points="458.82 580.16 496.28 533.8 420.3 485.9 458.82 580.16"/><text class="cls-5" transform="translate(684.15 655.59)">Albisoft</text></g></svg>