<?xml version="1.0" encoding="utf-8"?>
<!-- Generator: Adobe Illustrator 24.1.0, SVG Export Plug-In . SVG Version: 6.00 Build 0)  -->
<svg version="1.1" id="Capa_1" xmlns="http://www.w3.org/2000/svg" xmlns:xlink="http://www.w3.org/1999/xlink" x="0px" y="0px"
	 viewBox="0 0 1306.5 360" style="enable-background:new 0 0 1306.5 360;" xml:space="preserve">
<style type="text/css">
	.st0{fill:#3860FF;}
	.st1{fill:#FFFFFF;}
	.st2{fill:#08050D;}
</style>
<g>
	<g>
		<circle id="path5_4_" class="st0" cx="180" cy="180" r="180">
		</circle>
		<g>
			<polygon class="st1" points="203.1,156.6 219.4,136.5 121.6,85.8 132.2,112 			"/>
			<polygon class="st1" points="89.6,69.3 166.8,315.9 192,284.7 107.9,78.7 			"/>
			<polygon class="st1" points="206.1,170.3 172.9,211.4 199.2,275.9 230.5,237.2 274,213.1 			"/>
			<polygon class="st1" points="228.4,141.2 211.6,162 283.9,207.6 319.1,188.2 			"/>
			<polygon class="st1" points="139.3,128.7 168.7,200.6 197.3,165.2 			"/>
		</g>
	</g>
	<g>
		<path class="st2" d="M396.8,285.8l69.2-196h44.2l69.2,196h-35.8l-15.4-45.4H448l-15.4,45.4H396.8z M458.1,210.8H518l-29.1-85.4
			h-1.7L458.1,210.8z"/>
		<path class="st2" d="M624.2,285.8h-31.6V87h31.6V285.8z"/>
		<path class="st2" d="M789.1,215.8c0,40.9-26.9,72.8-66.9,72.8c-19.9,0-33.6-7.8-44.5-20.2L676,269l-2.8,16.8h-26V87h31.6v75.6
			l1.7,0.6c10.9-12.3,24.4-20.2,43.7-20.2C763,143,789.1,174.9,789.1,215.8z M681,215.5c0,24.1,15.7,42.3,38.1,42.3
			c22.4,0,38.1-18.2,38.1-42.3c0-24.1-15.7-42.3-38.1-42.3C696.7,173.2,681,191.4,681,215.5z"/>
		<path class="st2" d="M819.6,86.2c10.6,0,19,8.4,19,19.3c0,10.6-8.4,19-19,19c-10.9,0-19.3-8.4-19.3-19
			C800.3,94.6,808.7,86.2,819.6,86.2z M835.3,285.8h-31.6v-140h31.6V285.8z"/>
		<path class="st2" d="M884.8,183.3c0,23.8,75.9,12.9,75.9,62.2c0,26.6-22.1,43.1-54,43.1c-22.4,0-44.8-8.1-58.2-21.6l20.4-23
			c10.4,10.9,26,16.8,39.8,16.8c13.7,0,21-5.9,21-13.7c0-25.5-75.9-13.2-75.9-62.2c0-25.5,20.7-42,51.5-42c20.2,0,38.1,7,49,18.5
			l-20.2,21.3c-6.7-7.3-17.4-12-29.7-12C890.7,170.7,884.8,176.6,884.8,183.3z"/>
		<path class="st2" d="M1037.7,143c41.4,0,70,31.9,70,72.5c0,41.2-28.6,73.1-70,73.1c-40.9,0-69.4-31.9-69.4-73.1
			C968.3,174.9,996.8,143,1037.7,143z M1037.7,257.8c22.4,0,38.1-18.2,38.1-42.8c0-23-15.7-41.7-38.1-41.7
			c-21.8,0-37.5,18.8-37.5,41.7C1000.2,239.6,1015.9,257.8,1037.7,257.8z"/>
		<path class="st2" d="M1109.4,173.8v-28h31.4v-18.5c0-26.9,13.4-40.3,40.3-40.3h30.8v28h-26.6c-8.7,0-12.9,4.2-12.9,12.9v17.9h39.5
			v28h-39.5v112h-31.6v-112H1109.4z"/>
		<path class="st2" d="M1204,173.8v-28h31.4v-39.2h31.6v39.2h39.5v28H1267v71.1c0,8.7,4.2,12.9,12.9,12.9h26.6v28h-30.2
			c-27.4,0-40.9-13.4-40.9-40.9v-71.1H1204z"/>
	</g>
</g>
</svg>
